<svg xmlns="http://www.w3.org/2000/svg" width="342.414" height="171.118" viewBox="0 0 342.414 171.118">
  <g id="Grupo_1" data-name="Grupo 1" transform="translate(-845.794 -242.768)">
    <path id="Trazado_1" data-name="Trazado 1" d="M936.357,292.792c-.089-.22-8.93-22.364-29.857-49.768a.67.67,0,0,0-.447-.252.621.621,0,0,0-.49.149c-.39.319-39.5,33.113-59.736,92.9a.655.655,0,0,0,.38.813.641.641,0,0,0,.244.042.654.654,0,0,0,.589-.372c.191-.415,19.24-41.338,62.173-78.721A411.936,411.936,0,0,1,935.2,293.392a.664.664,0,0,0,.851.216.656.656,0,0,0,.308-.816" transform="translate(0 0)" fill="#008144"/>
    <path id="Trazado_2" data-name="Trazado 2" d="M941.613,343.888c-.089-.23-8.934-22.378-29.858-49.774a.694.694,0,0,0-.447-.252.775.775,0,0,0-.489.146c-.383.33-39.5,33.113-59.74,92.9a.666.666,0,0,0,.383.823.594.594,0,0,0,.237.042.649.649,0,0,0,.6-.38c.2-.411,19.243-41.33,62.173-78.731a415.22,415.22,0,0,1,26,35.819.648.648,0,0,0,1.146-.592" transform="translate(-2.532 -24.632)" fill="#93c120"/>
    <path id="Trazado_3" data-name="Trazado 3" d="M987.035,447.682a19.153,19.153,0,0,1-2.692.851,26.767,26.767,0,0,1-3.266.567,28.417,28.417,0,0,1-3.476.206,17.4,17.4,0,0,1-8.547-1.993,13.186,13.186,0,0,1-5.433-5.6,18.74,18.74,0,0,1-1.894-8.649,20.2,20.2,0,0,1,1.22-7.228,13.567,13.567,0,0,1,8.381-8.206,18.444,18.444,0,0,1,6.2-1.008,24.357,24.357,0,0,1,5.412.56,20.211,20.211,0,0,1,4.021,1.284l2.373-8.856a13.48,13.48,0,0,0-2.77-1.075,30.126,30.126,0,0,0-4.154-.8,38.328,38.328,0,0,0-5.33-.334,32.465,32.465,0,0,0-8.611,1.107,27,27,0,0,0-7.451,3.27,23.5,23.5,0,0,0-5.862,5.356,23.747,23.747,0,0,0-3.848,7.344,29.83,29.83,0,0,0-1.379,9.26,28.9,28.9,0,0,0,1.642,9.873,21.755,21.755,0,0,0,13.086,13.157,31.877,31.877,0,0,0,11.324,1.912,46.347,46.347,0,0,0,5.5-.34,36.919,36.919,0,0,0,4.327-.816,16.106,16.106,0,0,0,2.851-.99Z" transform="translate(-50.202 -79.37)" fill="#008144"/>
    <path id="Trazado_4" data-name="Trazado 4" d="M1051.213,433.457a22.743,22.743,0,0,0-7.941,1.358,16.865,16.865,0,0,0-10.022,9.884,22.55,22.55,0,0,0-1.37,7.948,20.434,20.434,0,0,0,1.44,7.82,16.673,16.673,0,0,0,3.94,5.844,17.068,17.068,0,0,0,5.923,3.656,21.024,21.024,0,0,0,7.363,1.273,22.134,22.134,0,0,0,5.7-.738,18.732,18.732,0,0,0,5.2-2.245,16.526,16.526,0,0,0,4.235-3.8,17.238,17.238,0,0,0,2.865-5.4,22.848,22.848,0,0,0,1.046-7.071,21.212,21.212,0,0,0-1.322-7.5,16.635,16.635,0,0,0-9.526-9.668,20.922,20.922,0,0,0-7.526-1.358m-.372,8.047a5.829,5.829,0,0,1,3.28.933,7.272,7.272,0,0,1,2.22,2.461,12.551,12.551,0,0,1,1.255,3.461,18.592,18.592,0,0,1,.418,3.923,17.023,17.023,0,0,1-.884,5.756,8.486,8.486,0,0,1-2.461,3.784,5.8,5.8,0,0,1-3.83,1.376,6.181,6.181,0,0,1-4.04-1.429,8.779,8.779,0,0,1-2.482-3.841,16.986,16.986,0,0,1-.862-5.564,19.285,19.285,0,0,1,.418-3.941,12.11,12.11,0,0,1,1.288-3.489,6.97,6.97,0,0,1,2.3-2.476,6.037,6.037,0,0,1,3.38-.954" transform="translate(-89.713 -91.931)" fill="#008144"/>
    <path id="Trazado_5" data-name="Trazado 5" d="M1131.18,433.457a22.659,22.659,0,0,0-7.947,1.358,17.074,17.074,0,0,0-6.09,3.844,16.845,16.845,0,0,0-3.919,6.04,21.942,21.942,0,0,0-1.372,7.948,20.235,20.235,0,0,0,1.436,7.82,16.389,16.389,0,0,0,3.936,5.844,16.974,16.974,0,0,0,5.923,3.656,21.04,21.04,0,0,0,7.373,1.273,22.111,22.111,0,0,0,5.686-.738,18.57,18.57,0,0,0,5.188-2.245,16.639,16.639,0,0,0,4.252-3.8,17.451,17.451,0,0,0,2.862-5.4,22.363,22.363,0,0,0,1.036-7.071,20.661,20.661,0,0,0-1.319-7.5,16.956,16.956,0,0,0-3.738-5.856,16.689,16.689,0,0,0-5.788-3.812,20.875,20.875,0,0,0-7.518-1.358m-.369,8.047a5.8,5.8,0,0,1,3.266.933,7.051,7.051,0,0,1,2.213,2.461,11.486,11.486,0,0,1,1.262,3.461,18.377,18.377,0,0,1,.411,3.923,17.162,17.162,0,0,1-.872,5.756,8.576,8.576,0,0,1-2.458,3.784,5.8,5.8,0,0,1-3.823,1.376,6.151,6.151,0,0,1-4.043-1.429,8.823,8.823,0,0,1-2.493-3.841,16.915,16.915,0,0,1-.844-5.564,20.093,20.093,0,0,1,.393-3.941,12.228,12.228,0,0,1,1.3-3.489,6.93,6.93,0,0,1,2.295-2.476,6.083,6.083,0,0,1,3.394-.954" transform="translate(-128.267 -91.931)" fill="#008144"/>
    <path id="Trazado_6" data-name="Trazado 6" d="M1191.583,470.436H1202.5V449.391a10.882,10.882,0,0,1,.1-1.451,4.972,4.972,0,0,1,.352-1.414,6.867,6.867,0,0,1,1.007-1.827,5.966,5.966,0,0,1,1.741-1.528,5.036,5.036,0,0,1,2.49-.631,4.543,4.543,0,0,1,2.964.972,5.593,5.593,0,0,1,1.72,2.649,13.044,13.044,0,0,1,.553,3.979v20.3h10.923V449.321a13.5,13.5,0,0,1,.092-1.5c.078-.5.16-.954.27-1.383a6.892,6.892,0,0,1,1.135-1.958,5.268,5.268,0,0,1,1.749-1.408,5.115,5.115,0,0,1,2.362-.536,4.377,4.377,0,0,1,4,2.16,11.7,11.7,0,0,1,1.319,6.1v19.633H1246.2V449.182a25.253,25.253,0,0,0-.919-7.04,14.114,14.114,0,0,0-2.564-4.894,10.433,10.433,0,0,0-3.866-2.851,12.269,12.269,0,0,0-4.834-.94,13.757,13.757,0,0,0-3.674.475,13.514,13.514,0,0,0-3.188,1.305,12.818,12.818,0,0,0-2.486,1.876,18.121,18.121,0,0,0-2.238,2.547h-.138a9.7,9.7,0,0,0-2.213-3.285,9.952,9.952,0,0,0-3.363-2.145,11.894,11.894,0,0,0-4.312-.773,14,14,0,0,0-4.075.578,11.478,11.478,0,0,0-3.1,1.422,11.223,11.223,0,0,0-2.252,1.873,13.248,13.248,0,0,0-1.5,1.883h-.209l-.443-4.866h-9.533q.117,2.432.216,5.281c.049,1.919.081,3.982.081,6.231Z" transform="translate(-166.562 -91.931)" fill="#008144"/>
    <path id="Trazado_7" data-name="Trazado 7" d="M1338.416,456.05c.092-.414.167-1.021.255-1.8s.127-1.659.127-2.627a25.125,25.125,0,0,0-.56-5.3,19.924,19.924,0,0,0-1.741-4.894,15.008,15.008,0,0,0-3.092-4.043,13.733,13.733,0,0,0-4.554-2.748,17.4,17.4,0,0,0-6.146-1.011,19.588,19.588,0,0,0-6.71,1.106,16.54,16.54,0,0,0-5.121,3.022,17.626,17.626,0,0,0-3.586,4.387,21.042,21.042,0,0,0-2.12,5.213,22.524,22.524,0,0,0-.692,5.515,20.326,20.326,0,0,0,2.284,9.785,15.225,15.225,0,0,0,6.55,6.348,22.961,22.961,0,0,0,10.43,2.255,41.205,41.205,0,0,0,6.979-.574,28.371,28.371,0,0,0,6.086-1.717l-1.476-7.6a26.428,26.428,0,0,1-4.674,1.166,33.3,33.3,0,0,1-5.3.38,16.534,16.534,0,0,1-3.763-.415,11.629,11.629,0,0,1-3.181-1.266,7.167,7.167,0,0,1-2.248-2.138,6.12,6.12,0,0,1-.975-3.036Zm-23.3-7.674a10.215,10.215,0,0,1,.542-2.387,8.255,8.255,0,0,1,1.26-2.376A6.375,6.375,0,0,1,1319,441.8a6.247,6.247,0,0,1,3.032-.737,6.386,6.386,0,0,1,3.178.759,5.642,5.642,0,0,1,1.947,1.883,7.7,7.7,0,0,1,.964,2.369,9.464,9.464,0,0,1,.273,2.3Z" transform="translate(-221.132 -92.011)" fill="#008144"/>
    <path id="Trazado_8" data-name="Trazado 8" d="M1369.34,435.176l13.14,36.089H1393.7l13.433-36.089h-11.81l-4.642,16.743c-.415,1.55-.762,3.039-1.089,4.465s-.614,2.858-.908,4.319h-.224c-.287-1.425-.589-2.859-.922-4.305s-.7-2.93-1.142-4.479l-4.869-16.743Z" transform="translate(-252.402 -92.76)" fill="#008144"/>
    <path id="Trazado_9" data-name="Trazado 9" d="M1475.652,449.108a21.6,21.6,0,0,0-.762-6.054,13.133,13.133,0,0,0-2.614-4.98,12.193,12.193,0,0,0-4.862-3.376,20.9,20.9,0,0,0-7.544-1.241,33.129,33.129,0,0,0-6.008.539,32.416,32.416,0,0,0-4.714,1.249,20.91,20.91,0,0,0-3.3,1.468l2.071,7.227a15.459,15.459,0,0,1,2.805-1.365,21.484,21.484,0,0,1,3.447-.979,18.412,18.412,0,0,1,3.713-.394,11.428,11.428,0,0,1,3.355.458,5.191,5.191,0,0,1,2,1.167,4.02,4.02,0,0,1,.961,1.536,4.81,4.81,0,0,1,.238,1.564v.44a41.883,41.883,0,0,0-8.7.841,21.429,21.429,0,0,0-6.664,2.56,12.059,12.059,0,0,0-4.3,4.3,12.189,12.189,0,0,0-1.507,6.1,10.983,10.983,0,0,0,.8,4.156,10.557,10.557,0,0,0,5.948,5.987,12.63,12.63,0,0,0,4.9.929,15.076,15.076,0,0,0,5.89-1.132,11.443,11.443,0,0,0,4.43-3.305h.237l.664,3.632h10.1a20.745,20.745,0,0,1-.344-2.39c-.085-.926-.152-1.919-.2-3-.035-1.075-.053-2.174-.053-3.327Zm-10.838,8.192q0,.5-.042.979a9.168,9.168,0,0,1-.174.943,5.9,5.9,0,0,1-1.234,2.086,6.476,6.476,0,0,1-2.035,1.468,6,6,0,0,1-2.564.568,5.221,5.221,0,0,1-2.252-.465,3.485,3.485,0,0,1-1.585-1.44,4.514,4.514,0,0,1-.582-2.372,4.453,4.453,0,0,1,1.394-3.38,8.147,8.147,0,0,1,3.731-1.776,23.54,23.54,0,0,1,5.344-.536Z" transform="translate(-288.044 -91.931)" fill="#008144"/>
    <path id="Trazado_10" data-name="Trazado 10" d="M1040.45,549.326V524.545h3.53l7.9,12.537a69.56,69.56,0,0,1,4.412,8.052l.11-.037c-.294-3.309-.368-6.324-.368-10.148v-10.4h3.014v24.781h-3.235l-7.868-12.574a72.226,72.226,0,0,1-4.6-8.273l-.11.037c.183,3.125.22,6.1.22,10.221v10.589Z" transform="translate(-93.844 -135.845)" fill="#5c5855"/>
    <path id="Trazado_11" data-name="Trazado 11" d="M1090.046,555.858c-4.78,0-8.53-3.53-8.53-9.156,0-5.956,3.934-9.449,8.824-9.449,5.11,0,8.566,3.713,8.566,9.118,0,6.617-4.6,9.486-8.824,9.486Zm.147-2.427c3.088,0,5.4-2.9,5.4-6.949,0-3.014-1.508-6.8-5.331-6.8-3.787,0-5.441,3.53-5.441,6.913,0,3.9,2.206,6.838,5.331,6.838Z" transform="translate(-113.642 -141.972)" fill="#5c5855"/>
    <path id="Trazado_12" data-name="Trazado 12" d="M1117.631,552.145a9.139,9.139,0,0,0,4.3,1.25c2.317,0,3.419-1.14,3.419-2.647,0-1.544-.919-2.353-3.272-3.235-3.235-1.177-4.743-2.942-4.743-5.037,0-2.868,2.354-5.221,6.14-5.221a8.26,8.26,0,0,1,4.339,1.1l-.772,2.317a7.279,7.279,0,0,0-3.64-1.03c-1.912,0-2.942,1.1-2.942,2.427,0,1.471,1.029,2.132,3.345,3.051,3.052,1.14,4.67,2.684,4.67,5.331,0,3.162-2.463,5.368-6.618,5.368a10.154,10.154,0,0,1-5-1.25Z" transform="translate(-130.681 -141.972)" fill="#5c5855"/>
    <path id="Trazado_13" data-name="Trazado 13" d="M1157.377,547.718V532.386h-2.463v-2.463h2.463v-.845c0-2.5.589-4.78,2.1-6.214a6.166,6.166,0,0,1,4.3-1.655,7.346,7.346,0,0,1,2.758.515l-.4,2.5a5.012,5.012,0,0,0-2.1-.4c-2.721,0-3.457,2.426-3.457,5.147v.956h4.3v2.463h-4.265v15.332Z" transform="translate(-149.027 -134.237)" fill="#5c5855"/>
    <path id="Trazado_14" data-name="Trazado 14" d="M1188.2,551.188a29.816,29.816,0,0,0,.257,4.265h-2.9l-.294-2.242h-.111a6.577,6.577,0,0,1-5.441,2.647,5.07,5.07,0,0,1-5.441-5.111c0-4.3,3.824-6.654,10.7-6.618v-.368c0-1.471-.4-4.154-4.044-4.118a8.578,8.578,0,0,0-4.669,1.323l-.735-2.169a11.526,11.526,0,0,1,5.882-1.544c5.478,0,6.8,3.713,6.8,7.28Zm-3.162-4.816c-3.529-.074-7.537.551-7.537,4.007a2.835,2.835,0,0,0,3.015,3.088,4.491,4.491,0,0,0,4.375-2.978,3.319,3.319,0,0,0,.147-1.029Z" transform="translate(-158.359 -141.972)" fill="#5c5855"/>
    <path id="Trazado_15" data-name="Trazado 15" d="M1219.234,554.792a12.517,12.517,0,0,1-5.111,1.029c-5.368,0-8.861-3.64-8.861-9.081,0-5.478,3.75-9.485,9.559-9.485a10.189,10.189,0,0,1,4.486.956l-.735,2.464a7.926,7.926,0,0,0-3.75-.846c-4.081,0-6.287,3.052-6.287,6.728,0,4.118,2.647,6.655,6.177,6.655a9.262,9.262,0,0,0,3.971-.846Z" transform="translate(-173.301 -141.972)" fill="#5c5855"/>
    <path id="Trazado_16" data-name="Trazado 16" d="M1236.877,528.483a1.923,1.923,0,0,1-1.948-1.985,2,2,0,1,1,1.989,1.985Zm-1.543,3.015h3.235v17.795h-3.235Z" transform="translate(-187.603 -135.812)" fill="#5c5855"/>
    <rect id="Rect치ngulo_1" data-name="Rect치ngulo 1" width="3.235" height="26.104" transform="translate(1054.417 387.377)" fill="#5c5855"/>
    <path id="Trazado_17" data-name="Trazado 17" d="M1262.707,528.483a1.923,1.923,0,0,1-1.947-1.985,2,2,0,1,1,1.988,1.985Zm-1.543,3.015h3.235v17.795h-3.235Z" transform="translate(-200.056 -135.812)" fill="#5c5855"/>
    <path id="Trazado_18" data-name="Trazado 18" d="M1276.68,529.8v4.264h4.633v2.464h-4.633v9.559c0,2.206.625,3.456,2.427,3.456a6.036,6.036,0,0,0,1.875-.221l.147,2.464a8.842,8.842,0,0,1-2.868.441,4.615,4.615,0,0,1-3.493-1.36c-.882-.993-1.25-2.573-1.25-4.669v-9.67h-2.758v-2.464h2.758v-3.272Z" transform="translate(-204.877 -138.379)" fill="#5c5855"/>
    <path id="Trazado_19" data-name="Trazado 19" d="M1306.464,551.188a29.907,29.907,0,0,0,.257,4.265h-2.9l-.294-2.242h-.11a6.577,6.577,0,0,1-5.442,2.647,5.07,5.07,0,0,1-5.442-5.111c0-4.3,3.824-6.654,10.7-6.618v-.368c0-1.471-.4-4.154-4.044-4.118a8.578,8.578,0,0,0-4.669,1.323l-.736-2.169a11.53,11.53,0,0,1,5.883-1.544c5.479,0,6.8,3.713,6.8,7.28Zm-3.162-4.816c-3.529-.074-7.537.551-7.537,4.007a2.835,2.835,0,0,0,3.015,3.088,4.491,4.491,0,0,0,4.375-2.978,3.309,3.309,0,0,0,.147-1.029Z" transform="translate(-215.372 -141.972)" fill="#5c5855"/>
    <rect id="Rect치ngulo_2" data-name="Rect치ngulo 2" width="3.235" height="26.104" transform="translate(1102.374 387.377)" fill="#5c5855"/>
    <path id="Trazado_20" data-name="Trazado 20" d="M1365.574,551.188a29.922,29.922,0,0,0,.258,4.265h-2.9l-.294-2.242h-.11a6.577,6.577,0,0,1-5.442,2.647,5.07,5.07,0,0,1-5.441-5.111c0-4.3,3.824-6.654,10.7-6.618v-.368c0-1.471-.4-4.154-4.045-4.118a8.578,8.578,0,0,0-4.669,1.323l-.735-2.169a11.529,11.529,0,0,1,5.883-1.544c5.478,0,6.8,3.713,6.8,7.28Zm-3.162-4.816c-3.529-.074-7.537.551-7.537,4.007a2.835,2.835,0,0,0,3.015,3.088,4.492,4.492,0,0,0,4.375-2.978,3.323,3.323,0,0,0,.147-1.029Z" transform="translate(-243.869 -141.972)" fill="#5c5855"/>
    <path id="Trazado_21" data-name="Trazado 21" d="M1399.533,538.035l3.493,9.964c.588,1.654,1.067,3.125,1.434,4.6h.11c.4-1.471.919-2.942,1.507-4.6l3.456-9.964h3.383l-6.986,17.795h-3.088l-6.765-17.795Z" transform="translate(-265.292 -142.349)" fill="#5c5855"/>
    <path id="Trazado_22" data-name="Trazado 22" d="M1432.547,528.483a1.923,1.923,0,0,1-1.947-1.985,2,2,0,1,1,1.984,1.985ZM1431,531.5h3.235v17.795H1431Z" transform="translate(-281.936 -135.812)" fill="#5c5855"/>
    <path id="Trazado_23" data-name="Trazado 23" d="M1458.8,521.991V543.5c0,1.581.037,3.382.147,4.6h-2.9l-.147-3.088h-.073a6.524,6.524,0,0,1-6.03,3.493c-4.3,0-7.647-3.64-7.647-9.045-.037-5.956,3.677-9.559,7.978-9.559a5.918,5.918,0,0,1,5.368,2.684h.073V521.991Zm-3.235,15.553a6.039,6.039,0,0,0-.147-1.4,4.765,4.765,0,0,0-4.67-3.713c-3.346,0-5.331,2.942-5.331,6.838,0,3.64,1.8,6.618,5.258,6.618a4.9,4.9,0,0,0,4.743-3.9,5.157,5.157,0,0,0,.147-1.36Z" transform="translate(-287.504 -134.614)" fill="#5c5855"/>
    <path id="Trazado_24" data-name="Trazado 24" d="M1492.314,551.188a29.793,29.793,0,0,0,.258,4.265h-2.9l-.294-2.242h-.11a6.577,6.577,0,0,1-5.442,2.647,5.07,5.07,0,0,1-5.441-5.111c0-4.3,3.824-6.654,10.7-6.618v-.368c0-1.471-.4-4.154-4.044-4.118a8.578,8.578,0,0,0-4.669,1.323l-.735-2.169a11.527,11.527,0,0,1,5.882-1.544c5.478,0,6.8,3.713,6.8,7.28Zm-3.162-4.816c-3.529-.074-7.537.551-7.537,4.007a2.835,2.835,0,0,0,3.016,3.088,4.492,4.492,0,0,0,4.375-2.978,3.322,3.322,0,0,0,.146-1.029Z" transform="translate(-304.971 -141.972)" fill="#5c5855"/>
  </g>
</svg>
